<?xml version="1.0" standalone="no"?>
<!DOCTYPE svg PUBLIC "-//W3C//DTD SVG 20010904//EN"
 "http://www.w3.org/TR/2001/REC-SVG-20010904/DTD/svg10.dtd">
<svg version="1.0" xmlns="http://www.w3.org/2000/svg"
 width="421.000000pt" height="421.000000pt" viewBox="0 0 421.000000 421.000000"
 preserveAspectRatio="xMidYMid meet">
<metadata>
Created by potrace 1.16, written by Peter Selinger 2001-2019
</metadata>
<g transform="translate(0.000000,421.000000) scale(0.100000,-0.100000)"
fill="#000000" stroke="none">
<path d="M1845 3610 c-160 -34 -235 -70 -330 -160 -46 -44 -72 -60 -110 -69
-120 -29 -193 -85 -277 -210 -110 -162 -147 -283 -155 -506 -5 -147 6 -328 28
-453 l11 -63 22 20 c51 47 121 31 212 -52 42 -38 53 -55 63 -99 19 -85 21 -86
88 -63 72 25 72 28 60 231 l-9 150 37 67 37 66 121 40 c67 21 138 42 157 46
57 11 99 37 110 70 6 16 14 116 17 221 5 142 9 191 18 191 20 0 35 -96 43
-272 6 -148 8 -160 27 -164 11 -2 24 -10 30 -18 16 -21 255 -8 255 15 0 8 8
21 18 28 15 11 17 33 18 181 1 193 1 194 14 172 16 -27 38 -147 45 -247 6 -76
11 -94 26 -103 10 -5 19 -18 19 -29 0 -21 28 -34 54 -24 9 3 16 17 16 30 0 21
10 29 33 25 4 0 7 4 7 9 0 22 39 -30 42 -56 l3 -28 180 -24 c99 -13 187 -23
196 -23 20 0 49 -60 49 -100 0 -40 17 -34 53 17 36 51 47 123 47 302 0 204
-34 349 -111 478 -102 168 -302 313 -520 374 -188 53 -472 66 -644 30z"/>
<path d="M1967 2349 c-38 -4 -71 -10 -75 -13 -3 -3 42 -6 99 -7 57 0 127 -4
154 -9 l50 -7 -40 -3 c-22 -1 -51 -6 -65 -10 -25 -8 -25 -8 5 -10 25 -1 21 -4
-22 -15 -29 -8 -70 -25 -91 -39 -51 -32 -108 -89 -93 -94 6 -2 11 -10 11 -17
0 -14 92 -53 148 -62 26 -5 40 0 71 25 43 35 54 33 40 -7 -9 -24 -8 -25 6 -7
34 44 31 133 -6 180 l-20 26 31 0 c46 0 103 -36 131 -81 47 -77 48 -78 49 -33
0 48 -26 87 -74 109 l-31 15 35 -5 c102 -16 115 -17 100 -6 -11 8 -6 11 26 17
79 12 85 39 11 48 -72 9 -378 12 -450 5z"/>
<path d="M2810 2343 c-69 -4 -94 -17 -87 -44 3 -11 -4 -22 -19 -30 -25 -13
-33 -39 -12 -39 6 0 21 8 32 17 12 10 16 11 9 4 -9 -10 -9 -18 0 -31 13 -21
-8 -54 -29 -46 -14 5 -24 -15 -24 -48 0 -19 11 -28 51 -45 65 -27 72 -26 100
4 26 27 49 33 49 13 0 -9 4 -8 10 2 14 22 12 76 -5 117 -8 19 -15 37 -15 39 0
3 18 -5 39 -16 43 -21 78 -61 87 -97 8 -29 16 -29 40 -1 10 12 14 19 8 15 -6
-3 -16 5 -22 18 -14 30 -83 82 -122 90 -53 12 -43 25 19 25 38 0 61 4 61 11 0
7 10 9 25 7 27 -6 33 10 13 30 -12 12 -60 13 -208 5z"/>
<path d="M2887 1318 c-107 -140 -164 -196 -234 -231 -73 -37 -122 -41 -256
-18 -163 29 -282 70 -490 173 -98 48 -181 88 -183 88 -7 0 8 -54 18 -67 16
-20 248 -113 373 -149 182 -53 361 -87 426 -81 60 5 153 47 206 94 51 45 256
313 239 313 -3 0 -47 -55 -99 -122z"/>
<path d="M1776 715 c-16 -30 -46 -71 -67 -90 l-39 -35 -125 0 c-90 0 -151 -6
-218 -21 -50 -11 -102 -18 -114 -16 -13 2 -23 1 -23 -4 0 -18 72 -20 145 -5
46 10 127 16 199 16 103 0 126 3 154 20 18 11 36 28 39 38 4 9 12 22 19 27 15
11 68 115 62 120 -2 2 -16 -21 -32 -50z"/>
</g>
</svg>
