<?xml version="1.0" standalone="no"?>
<!DOCTYPE svg PUBLIC "-//W3C//DTD SVG 20010904//EN"
 "http://www.w3.org/TR/2001/REC-SVG-20010904/DTD/svg10.dtd">
<svg version="1.0" xmlns="http://www.w3.org/2000/svg"
 width="421.000000pt" height="421.000000pt" viewBox="0 0 421.000000 421.000000"
 preserveAspectRatio="xMidYMid meet">
<metadata>
Created by potrace 1.11, written by Peter Selinger 2001-2013
</metadata>
<g transform="translate(0.000000,421.000000) scale(0.100000,-0.100000)"
fill="#000000" stroke="none">
<path d="M1885 3615 c-173 -32 -274 -77 -362 -162 -50 -49 -70 -62 -124 -77
-35 -9 -84 -29 -109 -43 -53 -31 -150 -129 -150 -152 0 -5 -3 -11 -7 -13 -12
-5 -56 -77 -80 -128 -31 -67 -62 -173 -70 -243 -10 -79 -10 -306 1 -417 8 -88
9 -101 24 -187 5 -29 6 -53 2 -53 -14 0 -30 -61 -34 -130 -3 -49 18 -156 36
-177 6 -7 8 -13 4 -13 -3 0 7 -26 23 -59 58 -113 147 -180 203 -150 14 8 27 1
65 -33 70 -63 73 -66 73 -71 0 -8 -71 3 -125 19 -71 20 -124 10 -169 -32 -20
-19 -36 -38 -36 -43 0 -4 -21 -11 -47 -15 -120 -16 -147 -28 -192 -85 -24 -30
-43 -42 -80 -52 -26 -6 -54 -17 -62 -23 -42 -33 -65 -156 -62 -339 2 -166 33
-218 129 -218 45 0 56 -4 65 -22 26 -51 47 -64 108 -66 38 -1 76 5 110 18 50
19 51 19 75 0 13 -10 37 -19 53 -19 24 0 28 -4 30 -32 5 -63 50 -75 168 -47
27 7 106 13 175 14 160 3 151 1 180 28 30 26 70 82 70 97 0 5 5 10 12 10 6 0
8 3 5 7 -4 3 -2 12 3 19 10 11 13 21 25 80 16 76 9 148 -27 274 -24 82 -46
180 -42 180 3 0 16 -7 29 -16 14 -9 25 -14 25 -10 0 3 20 -6 45 -19 25 -14 48
-26 52 -26 5 -1 19 -6 33 -11 55 -21 136 -49 153 -54 9 -2 26 -6 37 -8 11 -3
24 -7 28 -10 5 -3 19 -7 33 -10 13 -3 33 -7 44 -10 100 -25 195 -42 280 -50
42 -4 121 18 177 49 42 23 158 140 182 183 6 9 20 28 33 42 13 14 23 30 23 36
0 7 7 14 15 18 8 3 15 12 15 21 0 8 3 15 8 15 7 0 13 10 42 66 8 16 17 31 21
34 4 4 17 30 24 50 1 3 7 19 14 35 7 17 15 38 17 48 2 9 6 27 9 40 16 64 14
144 -6 221 -12 45 -22 92 -24 106 -7 58 -15 152 -20 260 l-6 115 35 46 c44 56
51 101 50 319 0 167 -14 252 -57 360 -48 119 -132 231 -225 300 -19 14 -39 30
-45 35 -79 68 -275 147 -426 171 -18 3 -43 8 -55 11 -51 12 -354 11 -421 -2z"/>
</g>
</svg>
